Coordinates
version=1
nRows=14
nColumns=32
inDegrees=yes

Units are S.I. units (second, meters, Newtons, ...)
If the header above contains a line with 'inDegrees', this indicates whether rotational values are in degrees (yes) or radians (no).

endheader
time	pelvis_tilt	pelvis_list	pelvis_rotation	pelvis_tx	pelvis_ty	pelvis_tz	hip_flexion_r	hip_adduction_r	hip_rotation_r	knee_angle_r	ankle_angle_r	subtalar_angle_r	mtp_angle_r	hip_flexion_l	hip_adduction_l	hip_rotation_l	knee_angle_l	ankle_angle_l	subtalar_angle_l	mtp_angle_l	lumbar_extension	lumbar_bending	lumbar_rotation	arm_flex_r	arm_add_r	arm_rot_r	elbow_flex_r	arm_flex_l	arm_add_l	arm_rot_l	elbow_flex_l
      3.23000000	      2.21192341	     -5.10757108	     -2.57081557	      0.67328752	      0.84332498	     -0.30920268	     -0.24474719	      5.68612577	      0.24110125	    -58.22180961	      6.87213320	    -22.80867650	      0.00000000	     35.00634202	     -4.09552074	      6.52320752	    -48.35467107	      7.51749774	    -26.66872874	      0.00000000	    -12.61617898	     -3.34398548	     -1.92158897	      0.00000000	      0.00000000	      0.00000000	      0.00000000	      0.00000000	      0.00000000	      0.00000000	      0.00000000
      3.24000000	      1.93662029	     -4.90690048	     -2.12120053	      0.68423378	      0.84523873	     -0.30992057	      0.28325504	      5.70687534	      0.08060192	    -58.96624537	      4.81983269	    -23.15274555	      0.00000000	     34.44568984	     -3.59985529	      6.84411575	    -48.23003821	      8.15844631	    -26.82013178	      0.00000000	    -12.07059282	     -4.05745705	     -2.65100937	      0.00000000	      0.00000000	      0.00000000	      0.00000000	      0.00000000	      0.00000000	      0.00000000	      0.00000000
      3.25000000	      1.86947932	     -4.97930479	     -1.76475646	      0.69515577	      0.84783217	     -0.31071696	      0.60818235	      5.96688033	      0.02150963	    -59.61387846	      3.65305607	    -22.62829761	      0.00000000	     33.61788498	     -3.52688945	      6.98045394	    -48.03507155	      8.63176710	    -26.87817522	      0.00000000	    -11.77247908	     -4.35097116	     -3.11322658	      0.00000000	      0.00000000	      0.00000000	      0.00000000	      0.00000000	      0.00000000	      0.00000000	      0.00000000
      3.26000000	      1.88611898	     -4.80718673	     -1.30514808	      0.70532866	      0.85043598	     -0.31170924	      0.98648566	      5.89768842	     -0.26607571	    -60.26850949	      2.37400737	    -22.71583027	      0.00000000	     32.74204959	     -3.21003274	      7.09244534	    -47.79355836	      9.19630297	    -26.32460899	      0.00000000	    -11.74725965	     -4.90820413	     -3.65639121	      0.00000000	      0.00000000	      0.00000000	      0.00000000	      0.00000000	      0.00000000	      0.00000000	      0.00000000
      3.27000000	      1.53205284	     -5.09356045	     -0.46636343	      0.71534058	      0.85282776	     -0.31251187	      1.75939499	      6.48626704	     -0.75897460	    -60.71417967	      0.97679386	    -23.06910792	      0.00000000	     32.31551800	     -3.21970015	      7.57037020	    -47.47763777	      9.95793496	    -25.70387230	      0.00000000	    -11.32101340	     -4.96285758	     -4.58449758	      0.00000000	      0.00000000	      0.00000000	      0.00000000	      0.00000000	      0.00000000	      0.00000000	      0.00000000
      3.28000000	      1.61951601	     -4.87119083	     -0.42717948	      0.72496617	      0.85606132	     -0.31302473	      2.19452533	      6.33170566	     -0.71941245	    -61.23231540	     -0.84666849	    -24.56753700	      0.00000000	     31.13947495	     -3.14129842	      7.12319349	    -46.84514098	     10.54971347	    -25.05702865	      0.00000000	    -11.39961338	     -5.58819896	     -4.56832355	      0.00000000	      0.00000000	      0.00000000	      0.00000000	      0.00000000	      0.00000000	      0.00000000	      0.00000000
      3.29000000	      1.45170173	     -4.91023046	     -0.12792952	      0.73489102	      0.85904280	     -0.31374833	      2.91047984	      6.41600502	     -1.01550449	    -61.66813821	     -2.13955676	    -24.53996708	      0.00000000	     30.26456450	     -3.23054260	      7.01749558	    -46.21122813	     11.02303193	    -24.98950236	      0.00000000	    -11.28579483	     -5.88646975	     -5.16440679	      0.00000000	      0.00000000	      0.00000000	      0.00000000	      0.00000000	      0.00000000	      0.00000000	      0.00000000
      3.30000000	      1.45969735	     -4.92129209	      0.28886036	      0.74423358	      0.86259871	     -0.31430830	      3.55858193	      6.54393850	     -1.37894412	    -62.08991822	     -3.01653508	    -24.57971275	      0.00000000	     29.19120309	     -3.23902852	      7.04029029	    -45.43532115	     11.28150949	    -24.58441184	      0.00000000	    -11.22312590	     -6.15305685	     -5.33746517	      0.00000000	      0.00000000	      0.00000000	      0.00000000	      0.00000000	      0.00000000	      0.00000000	      0.00000000
      3.31000000	      1.33396814	     -5.06230574	      0.58097242	      0.75354889	      0.86599252	     -0.31474478	      4.40235554	      6.89498623	     -1.47654104	    -62.49376097	     -3.00587311	    -24.61491612	      0.00000000	     28.25746012	     -3.42135402	      6.99644458	    -44.66295317	     11.36032850	    -24.41594721	      0.00000000	    -11.27295166	     -6.27215342	     -5.52218653	      0.00000000	      0.00000000	      0.00000000	      0.00000000	      0.00000000	      0.00000000	      0.00000000	      0.00000000
      3.32000000	      1.19919420	     -5.15865008	      0.89826145	      0.76292857	      0.86950889	     -0.31525515	      5.27215854	      7.23190073	     -1.45338015	    -62.78677843	     -2.81652741	    -24.40465058	      0.00000000	     27.20433292	     -3.57750805	      7.03839253	    -43.61061758	     11.56942094	    -24.25620249	      0.00000000	    -11.04891184	     -6.32480435	     -5.92647856	      0.00000000	      0.00000000	      0.00000000	      0.00000000	      0.00000000	      0.00000000	      0.00000000	      0.00000000
      3.33000000	      1.10150574	     -5.16491924	      1.33605672	      0.77171347	      0.87282364	     -0.31572281	      6.32714626	      7.16364566	     -2.05571207	    -63.37323387	     -0.90469351	    -22.27753791	      0.00000000	     26.27575345	     -3.64501993	      6.87418553	    -42.80933619	     12.61656608	    -22.51870518	      0.00000000	    -10.97499918	     -6.52464896	     -6.32758616	      0.00000000	      0.00000000	      0.00000000	      0.00000000	      0.00000000	      0.00000000	      0.00000000	      0.00000000
      3.34000000	      0.95720773	     -5.32515049	      1.55765552	      0.78054714	      0.87621610	     -0.31606522	      7.42316338	      7.49516864	     -2.12123555	    -63.67552312	     -0.86313208	    -21.89135939	      0.00000000	     25.21388435	     -3.88175794	      6.95987331	    -41.66561720	     12.64458972	    -22.50268928	      0.00000000	    -10.83852199	     -6.44763583	     -6.46263770	      0.00000000	      0.00000000	      0.00000000	      0.00000000	      0.00000000	      0.00000000	      0.00000000	      0.00000000
      3.35000000	      0.45537161	     -5.47252775	      1.80543944	      0.78897599	      0.87878054	     -0.31626674	      9.14129202	      7.57898422	     -2.61841515	    -64.34350565	      0.56149843	    -19.57437488	      0.00000000	     24.69774161	     -4.06871071	      7.03258989	    -40.78143858	     12.75472821	    -22.50316333	      0.00000000	    -10.51138380	     -6.42274136	     -7.10594687	      0.00000000	      0.00000000	      0.00000000	      0.00000000	      0.00000000	      0.00000000	      0.00000000	      0.00000000
      3.36000000	      0.43703545	     -5.33017311	      1.98951698	      0.79678010	      0.88217249	     -0.31754380	     10.41445432	      7.15838617	     -3.13012416	    -64.98705789	      1.92935019	    -17.56973543	      0.00000000	     23.56225167	     -3.94558944	      6.77692534	    -39.62996174	     12.84331123	    -21.99417261	      0.00000000	    -10.30062089	     -6.75979572	     -7.46001664	      0.00000000	      0.00000000	      0.00000000	      0.00000000	      0.00000000	      0.00000000	      0.00000000	      0.00000000
